<svg width="126" height="77" viewBox="0 0 126 77" fill="none" xmlns="http://www.w3.org/2000/svg">
<g filter="url(#filter0_i)">
<path d="M69.6108 53.3187L74.7513 58.4926C76.0616 59.8135 76.0738 61.0917 74.7696 62.3959C71.5589 65.6098 68.3457 68.8196 65.1299 72.0254C63.7968 73.3524 62.5018 73.3478 61.1686 72.0133C59.5689 70.42 57.9691 68.8313 56.3968 67.2061C56.0753 66.8728 55.8544 66.9657 55.5466 67.1209C52.5131 68.6581 49.2454 69.6824 45.8765 70.1522C39.4302 71.0652 33.2125 70.2663 27.3604 67.3902C17.8045 62.6957 11.8367 55.087 9.70212 44.6676C8.2669 37.6676 9.17801 30.8609 12.3669 24.4178C12.6716 23.8091 12.6228 23.485 12.1307 23.0194C10.5096 21.4839 8.93119 19.9013 7.36799 18.302C6.30149 17.22 6.30149 15.8672 7.36799 14.7867C10.6924 11.4389 14.0316 8.10378 17.3855 4.78131C18.4947 3.68262 19.8492 3.70697 20.9614 4.8011C22.5901 6.40197 24.2096 8.01196 25.8003 9.65088C26.137 9.99631 26.3655 10.0876 26.8165 9.85935C32.2252 7.12022 37.998 6.00175 43.9948 6.61805C55.347 7.78827 63.8699 13.44 69.4386 23.3967C72.2313 28.3926 73.3999 33.8359 73.2247 39.5393C73.0872 44.3475 71.8511 49.0607 69.6108 53.3187V53.3187ZM45.5382 36.228C47.4336 35.1065 47.9546 33.4007 47.9622 31.4559C47.9744 28.1872 46.0959 26.2211 42.8186 26.145C40.5866 26.0933 38.3515 26.1267 36.1149 26.1298C34.7132 26.1298 34.25 26.6015 34.25 28.0046C34.25 34.0641 34.25 40.1232 34.25 46.1817C34.25 47.6274 34.6721 48.16 36.1027 48.1783C38.5877 48.2102 41.0802 48.2361 43.5591 48.0885C45.6753 47.9607 47.2462 46.8315 47.9988 44.8031C48.7042 42.8994 48.7027 40.9333 48.1953 38.9778C47.8403 37.6265 46.8531 36.8261 45.5306 36.228H45.5382ZM28.6036 36.2357C30.9317 34.8022 31.1815 32.6322 30.95 30.3267C30.7001 27.8463 28.7103 26.2074 25.8856 26.1465C23.5774 26.0963 21.2661 26.1191 18.9563 26.1344C17.8426 26.1344 17.3429 26.6715 17.3413 27.7748C17.3413 33.9348 17.3413 40.0948 17.3413 46.2548C17.3413 47.6457 17.7588 48.16 19.1696 48.1767C21.6561 48.2087 24.1472 48.2391 26.626 48.0885C28.7377 47.9591 30.3131 46.833 31.0627 44.8C31.7437 42.948 31.7757 41.0352 31.3049 39.1209C30.95 37.7072 29.9657 36.8459 28.596 36.2357H28.6036ZM60.5485 48.0444C60.8837 47.9728 61.0818 47.95 61.2677 47.8922C63.6688 47.0811 65.0766 45.3265 65.2015 42.8933C65.3844 39.1285 65.3448 35.3454 65.2168 31.5761C65.1315 29.0287 63.3352 27.0261 60.8471 26.4615C59.708 26.226 58.5453 26.1239 57.3825 26.1572C53.7168 26.1983 51.2349 28.6772 51.1618 32.34C51.1039 35.2039 51.0871 38.0693 51.0917 40.9333C51.0917 42.455 51.209 43.9767 51.9967 45.3463C52.8514 46.8391 54.1205 47.7263 55.958 48.0733C55.731 46.3994 56.377 44.7696 55.4613 43.2417C55.2725 42.8821 55.1782 42.4805 55.187 42.0746C55.1688 38.8059 55.1383 35.5311 55.2008 32.267C55.2328 30.6098 56.3054 29.7074 58.0438 29.6511C59.8949 29.5902 61.0818 30.412 61.2113 32.0859C61.3636 34.052 61.3454 36.0333 61.3499 38.0085C61.3499 39.4754 61.3347 40.9485 61.2052 42.4078C61.1503 43.0059 60.6247 43.5613 60.5775 44.1563C60.4708 45.3981 60.5409 46.6672 60.5409 48.0444H60.5485ZM19.1864 9.91718L12.5268 16.5444L15.219 19.2637L21.8938 12.6061L19.1864 9.91718ZM69.85 60.4389L67.0573 57.7774C64.8801 59.9504 62.6389 62.1904 60.4647 64.3574L63.2072 67.0874L69.85 60.4389ZM59.4546 46.7478C59.4546 45.6096 59.4546 44.4728 59.4546 43.3346C59.447 42.4839 58.9975 41.9802 58.2769 41.9559C57.5151 41.93 56.9833 42.4428 56.9773 43.3011C56.96 45.5502 56.96 47.7999 56.9773 50.05C56.9773 50.8794 57.5501 51.4774 58.2464 51.4637C58.9427 51.45 59.4485 50.8748 59.4561 50.0089C59.4607 48.9209 59.4546 47.8344 59.4546 46.7478Z" fill="#E8E8E8"/>
<path d="M80.6492 39.6246C81.836 39.6246 82.8904 39.6428 83.9432 39.6017C84.0742 39.6017 84.2905 39.2746 84.2997 39.0904C84.3393 38.2809 84.3408 37.4683 84.3119 36.6557C84.289 36.018 84.5709 35.5904 85.1696 35.5052C85.8135 35.4147 86.4664 35.4071 87.1122 35.4824C87.7475 35.56 88.0431 36.0074 88.0126 36.677C87.9806 37.3846 88.0355 38.0967 87.9974 38.8074C87.9639 39.4161 88.1406 39.6596 88.7988 39.6489C90.3056 39.6246 91.0537 40.7857 90.4945 42.2054C90.2493 42.8309 89.8287 43.1717 89.1066 43.158C88.0081 43.1398 88.0081 43.1672 88.0065 44.275C88.0065 45.0359 87.9822 45.7967 88.0065 46.5576C88.0294 47.1344 87.7506 47.5589 87.2524 47.638C86.5436 47.7496 85.8221 47.7548 85.1117 47.6533C84.5785 47.5741 84.2905 47.1283 84.3073 46.5257C84.3317 45.6126 84.2905 44.6996 84.321 43.7865C84.3362 43.2813 84.1397 43.1352 83.6537 43.1398C81.5984 43.1596 79.54 43.1504 77.4893 43.1398C75.9489 43.1398 75.3959 42.2754 76.0861 40.918C78.408 36.364 80.7345 31.8104 83.0656 27.2574C83.6979 26.0217 85.3357 25.8741 86.2316 26.9439C86.6536 27.4491 86.4647 27.93 86.2163 28.4246C84.5424 31.7511 82.8726 35.0791 81.2068 38.4087C81.0225 38.7617 80.8731 39.1285 80.6492 39.6246Z" fill="#E8E8E8"/>
<path d="M111.883 26.2317C113.888 26.2317 115.894 26.2317 117.901 26.2317C118.868 26.2317 119.365 26.778 119.379 27.8326C119.394 28.9252 118.896 29.4791 117.878 29.4852C116.887 29.4928 115.897 29.4852 114.907 29.4852C113.757 29.4852 113.755 29.4852 113.755 30.6037C113.755 35.7776 113.746 40.9515 113.764 46.1254C113.764 46.8863 113.647 47.4691 112.823 47.7217C111.908 48.0033 110.65 47.8359 110.269 47.2652C110.104 47.0172 110.068 46.6474 110.068 46.3339C110.056 41.0839 110.053 35.8339 110.059 30.5839C110.059 29.4913 110.059 29.4898 108.96 29.4867C108.022 29.4867 107.082 29.4867 106.142 29.4867C104.752 29.4867 104.102 28.598 104.496 27.2528C104.697 26.568 105.077 26.2013 105.867 26.218C107.869 26.2576 109.876 26.2317 111.883 26.2317Z" fill="#E8E8E8"/>
<path d="M102.045 37.0543C102.045 40.1222 102.045 43.19 102.045 46.2578C102.045 47.3033 101.807 47.5939 100.794 47.8252C99.2704 48.1752 98.3395 47.4433 98.3395 45.8987V28.3287C98.3395 26.5711 99.0266 25.9867 100.777 26.247C101.734 26.3885 102.039 26.7309 102.04 27.7002C102.046 30.8188 102.048 33.9368 102.045 37.0543Z" fill="#E8E8E8"/>
<path d="M91.7561 46.0843C91.7561 44.9507 92.5332 44.1791 93.6545 44.1898C94.7042 44.1989 95.6077 45.1028 95.5833 46.1239C95.5562 46.631 95.338 47.109 94.9726 47.4621C94.6072 47.8152 94.1217 48.0172 93.6134 48.0276C92.5164 48.0185 91.7516 47.218 91.7561 46.0843Z" fill="#E8E8E8"/>
<path d="M38.3165 44.6859V37.8913C39.7121 37.8913 41.0727 37.8228 42.4226 37.9111C43.5805 37.9887 44.2676 38.7587 44.3926 39.8894C44.5013 40.768 44.4957 41.657 44.3758 42.5341C44.1625 43.9357 43.2925 44.5946 41.673 44.6828C40.5867 44.7391 39.4958 44.6859 38.3165 44.6859Z" fill="#E8E8E8"/>
<path d="M38.2829 34.6317C38.2829 33.0598 38.2677 31.5456 38.3088 30.033C38.3088 29.8976 38.679 29.6663 38.8847 29.6587C39.8476 29.6207 40.8151 29.6115 41.7795 29.6587C43.1203 29.718 43.8745 30.5504 43.9674 31.9946C44.0558 33.3854 43.2879 34.5039 42.0005 34.615C40.7968 34.7139 39.578 34.6317 38.2829 34.6317Z" fill="#E8E8E8"/>
<path d="M21.4033 37.8411C22.7365 37.8411 24.0315 37.7346 25.3006 37.8685C26.7176 38.0206 27.3483 38.6765 27.487 40.0674C27.5675 40.9965 27.5219 41.9322 27.3514 42.8491C27.1822 43.7941 26.4982 44.3709 25.5353 44.5535C25.1888 44.6283 24.8366 44.6731 24.4825 44.6874C23.4754 44.7041 22.4683 44.6874 21.4033 44.6874V37.8411Z" fill="#E8E8E8"/>
<path d="M21.3485 34.6287C21.3485 33.0567 21.3332 31.5852 21.3713 30.1259C21.3713 29.9615 21.6898 29.6693 21.868 29.6693C22.8797 29.6267 23.8959 29.6115 24.906 29.6693C26.227 29.7393 26.9293 30.5535 26.9918 31.9809C27.0573 33.4661 26.3824 34.4978 25.0767 34.612C23.8761 34.7109 22.6603 34.6287 21.3485 34.6287Z" fill="#E8E8E8"/>
</g>
<defs>
<filter id="filter0_i" x="0" y="0" width="129" height="80" filterUnits="userSpaceOnUse" color-interpolation-filters="sRGB">
<feFlood flood-opacity="0" result="BackgroundImageFix"/>
<feBlend mode="normal" in="SourceGraphic" in2="BackgroundImageFix" result="shape"/>
<feColorMatrix in="SourceAlpha" type="matrix" values="0 0 0 0 0 0 0 0 0 0 0 0 0 0 0 0 0 0 127 0" result="hardAlpha"/>
<feOffset dx="3" dy="3"/>
<feGaussianBlur stdDeviation="1.5"/>
<feComposite in2="hardAlpha" operator="arithmetic" k2="-1" k3="1"/>
<feColorMatrix type="matrix" values="0 0 0 0 0 0 0 0 0 0 0 0 0 0 0 0 0 0 0.5 0"/>
<feBlend mode="normal" in2="shape" result="effect1_innerShadow"/>
</filter>
</defs>
</svg>
